<svg width="200" height="200" viewBox="0 0 200 200" xmlns="http://www.w3.org/2000/svg">
    <path fill="#008000" d="M100,20 C130,15 160,40 140,70 C160,90 190,100 160,120 C130,130 140,160 110,150 C80,170 60,140 30,150 C20,130 10,110 30,90 C10,70 30,50 40,30 C50,20 70,40 100,20 Z" transform="translate(0 10)" />
    <circle cx="85" cy="80" r="20" fill="#FFFFFF" />
    <circle cx="115" cy="80" r="20" fill="#FFFFFF" />
    <circle cx="85" cy="80" r="8" fill="#000000" />
    <circle cx="115" cy="80" r="8" fill="#000000" />
    <path fill="#000000" d="M90 110 Q100 120, 110 110" />
</svg>
